<?xml version="1.0" encoding="utf-8"?>
<!-- Generator: Adobe Illustrator 12.0.1, SVG Export Plug-In . SVG Version: 6.00 Build 51448)  -->
<!DOCTYPE svg PUBLIC "-//W3C//DTD SVG 1.1//EN" "http://www.w3.org/Graphics/SVG/1.1/DTD/svg11.dtd" [
	<!ENTITY ns_svg "http://www.w3.org/2000/svg">
	<!ENTITY ns_xlink "http://www.w3.org/1999/xlink">
]>
<svg  version="1.1" id="Ebene_1" xmlns="&ns_svg;" xmlns:xlink="&ns_xlink;" width="1158.24" height="393.568"
	 viewBox="0 0 1158.24 393.568" overflow="visible" enable-background="new 0 0 1158.24 393.568" xml:space="preserve">
<g>
	<path fill="#E4214E" d="M0,393.568c0,0,664.432-163.227,1156.717-48.234l1.523-5.313c0,0-429.555-126.852-1149.988,27.656"/>
	<path fill="#004B85" d="M318.055,73.254v27.057c2.449-5.416,5.561-12.76,13.912-19.713c9.045-7.723,22.26-11.986,35.141-11.986
		c6.588,0,13.199,1.176,19.791,3.492c20.521,7.723,26.438,23.947,28.869,30.896c16.008-29.742,41.379-33.98,54.936-33.98
		c16.68,0,31.297,6.191,41.031,15.844c17.381,16.996,18.072,35.516,18.072,81.898v106.627h-51.092v-94.662
		c0-32.076-0.695-38.645-5.92-47.123c-5.561-9.277-13.568-11.229-21.223-11.229c-13.896,0-20.846,10.047-21.893,11.604
		c-5.576,9.656-5.576,26.271-5.576,42.496v98.906h-51.096v-100.83c0-21.637,0-31.297-5.225-40.191
		c-3.82-6.553-11.477-11.984-20.855-11.984c-4.512,0-9.045,1.168-13.221,3.5c-14.955,8.484-15.295,23.176-15.295,61.043v88.471
		h-51.129V73.254"/>
	<polyline fill="#004B85" points="733.088,73.254 785.225,73.254 733.088,273.381 685.424,273.381 655.17,138.172 625.283,273.381 
		576.959,273.381 524.799,73.254 576.959,73.254 604.428,198.436 632.588,73.254 677.783,73.254 705.619,198.436 	"/>
	<path fill="#004B85" d="M895.209,273.381h50.082V72.875h-49.039v25.879c-9.027-19.311-24.676-30.52-44.5-30.52
		c-34.066,0-78.582,29.369-78.582,108.18c0,62.592,31.977,101.229,74.754,101.229c29.207,0,41.023-17,47.277-26.277 M892.58,171
		c0,18.172-2.434,35.553-13.215,48.693c-9.047,10.418-19.121,11.203-22.258,11.203c-10.078,0-21.555-6.188-28.52-23.582
		c-4.156-10.035-5.559-22.02-5.559-34.385c0-15.451,2.109-31.295,10.781-44.035c6.25-8.9,15.988-14.676,25.391-14.676
		c7.641,0,15.293,3.84,20.516,10.031C886.314,131.604,892.58,145.119,892.58,171z"/>
	<path fill="#004B85" d="M1063.326,73.254h51.953l-57.172,198.588c-4.176,13.906-10.766,36.711-20.859,47.914
		c-9.398,10.047-20.523,14.691-61.898,14.691c-5.914,0-8.336-0.402-13.559-0.777v-44.438h13.559c4.875,0,16.344,0,21.555-5.016
		c4.176-3.492,7.656-11.984,7.656-20.105c0-4.238-2.098-11.988-3.824-17L945.1,73.254h55.633l32.684,134.83"/>
	<path fill="#004B85" d="M120.715,0L34.867,273.381h63.061l16.02-58.082h80.512l16.393,58.082h63.416L184.836,0 M153.127,60.035
		l27.436,105.32h-53.416L153.127,60.035z"/>
</g>
</svg>
