<?xml version="1.0" encoding="utf-8"?>
<!-- Generator: Adobe Illustrator 15.1.0, SVG Export Plug-In . SVG Version: 6.00 Build 0)  -->
<!DOCTYPE svg PUBLIC "-//W3C//DTD SVG 1.1//EN" "http://www.w3.org/Graphics/SVG/1.1/DTD/svg11.dtd">
<svg version="1.1" id="Capa_1" xmlns="http://www.w3.org/2000/svg" xmlns:xlink="http://www.w3.org/1999/xlink" x="0px" y="0px"
	 width="354.786px" height="141.139px" viewBox="0 0 354.786 141.139" enable-background="new 0 0 354.786 141.139"
	 xml:space="preserve">
<g>
	<path d="M48.402,43.224c0,2.372-0.41,4.521-1.229,6.44c-0.819,1.922-1.991,3.574-3.517,4.958c-1.525,1.385-3.376,2.444-5.552,3.179
		c-2.175,0.732-4.618,1.101-7.33,1.101c-2.317,0-4.619-0.24-6.907-0.72c-2.289-0.481-4.352-1.172-6.188-2.076
		c-1.836-0.903-3.334-1.992-4.491-3.263c-1.159-1.271-1.737-2.698-1.737-4.28v-8.145c0-0.511,0.414-0.925,0.924-0.925h0.001
		c0.446,0,0.823,0.327,0.904,0.766c0.99,5.311,2.812,9.151,5.467,11.523c2.78,2.488,6.557,3.729,11.331,3.729
		c1.46,0,2.849-0.183,4.169-0.551c1.32-0.366,2.485-0.918,3.496-1.652c1.011-0.734,1.825-1.639,2.444-2.712
		c0.616-1.073,0.927-2.317,0.927-3.729c0-2.485-0.778-4.604-2.331-6.355c-1.554-1.751-3.885-3.531-6.992-5.341l-10.424-6.187
		c-3.617-2.146-6.174-4.322-7.67-6.525c-1.498-2.204-2.246-4.886-2.246-8.052c0-2.203,0.395-4.18,1.186-5.933
		c0.791-1.75,1.907-3.264,3.348-4.534c1.44-1.271,3.163-2.246,5.169-2.924C23.16,0.339,25.406,0,27.892,0
		c2.09,0,4.223,0.227,6.4,0.679c2.174,0.452,4.138,1.115,5.889,1.991c1.751,0.877,3.191,1.95,4.323,3.221
		c1.129,1.271,1.695,2.698,1.695,4.28v8.144c0,0.511-0.414,0.925-0.925,0.925c-0.446,0-0.823-0.327-0.905-0.766
		c-0.987-5.307-2.767-9.118-5.34-11.439c-2.732-2.461-6.53-3.677-11.395-3.643c-0.521,0.004-1.052,0.04-1.566,0.128
		c-1.969,0.339-3.632,1.062-4.975,2.16c-0.898,0.734-1.629,1.639-2.19,2.712c-0.562,1.073-0.842,2.26-0.842,3.559
		c0,1.244,0.198,2.345,0.594,3.306c0.394,0.961,0.987,1.865,1.779,2.711c0.791,0.849,1.78,1.683,2.966,2.502
		c1.187,0.819,2.544,1.681,4.069,2.585l10.424,6.187c1.807,1.074,3.376,2.105,4.704,3.093c1.327,0.989,2.415,2.034,3.263,3.137
		c0.848,1.101,1.483,2.274,1.907,3.517C48.191,40.23,48.402,41.643,48.402,43.224"/>
	<path d="M91.59,4.916H69.504c-0.468,0-0.847,0.379-0.847,0.848v20.341c0,0.468,0.379,0.848,0.847,0.848h16.608
		c0.468,0,0.847,0.379,0.847,0.847v1.695c0,0.468-0.379,0.848-0.847,0.848H69.504c-0.468,0-0.847,0.38-0.847,0.848v22.036
		c0,0.467,0.379,0.847,0.847,0.847h13.985c3.841,0,6.878-0.706,9.11-2.119c2.078-1.314,3.752-3.488,5.023-6.519
		c0.162-0.388,0.576-0.609,0.984-0.507l0.068,0.017c0.49,0.122,0.765,0.641,0.59,1.115l-2.639,7.165
		c-0.453,1.301-1.202,2.331-2.246,3.094c-1.046,0.762-2.416,1.144-4.11,1.144H61.876c-0.468,0-0.847-0.379-0.847-0.847V11.696
		c0-2.542-0.353-4.59-1.059-6.145c-0.707-1.554-2.331-2.331-4.873-2.331h-0.849c-0.468,0-0.847-0.38-0.847-0.848
		s0.379-0.847,0.847-0.847H91.59c0.468,0,0.847,0.379,0.847,0.847v1.696C92.437,4.537,92.058,4.916,91.59,4.916"/>
	<path d="M92.438,4.916"/>
	<path d="M119.508,54.071H147.9c0.468,0,0.847,0.379,0.847,0.847v1.696c0,0.468-0.379,0.847-0.847,0.847h-36.021
		c-0.468,0-0.847-0.379-0.847-0.847V11.695c0-2.542-0.353-4.59-1.059-6.146c-0.707-1.553-2.331-2.329-4.873-2.329h-0.849
		c-0.468,0-0.847-0.381-0.847-0.849s0.379-0.847,0.847-0.847h6.781c1.468,0,2.698,0.128,3.687,0.382
		c0.988,0.253,1.78,0.762,2.373,1.525c0.594,0.763,1.003,1.809,1.229,3.136c0.225,1.328,0.339,3.038,0.339,5.127v41.529
		C118.661,53.692,119.04,54.071,119.508,54.071"/>
	<path d="M168.885,43.12c0.396,0.933,1.716,0.933,2.119,0.003c0.946-2.18,1.762-4.04,2.448-5.578
		c0.933-2.09,1.695-3.842,2.288-5.254c0.594-1.413,1.087-2.599,1.483-3.56c0.395-0.96,0.791-1.907,1.188-2.84
		c0.396-0.933,0.818-1.962,1.271-3.094c0.451-1.129,1.059-2.598,1.82-4.407c0.764-1.808,1.707-4.054,2.84-6.737
		c1.063-2.524,2.375-5.662,3.938-9.411c0.18-0.429,0.602-0.717,1.067-0.717h1.554c0.827,0,1.385,0.846,1.059,1.605l-23.336,54.48
		c-0.181,0.423-0.598,0.698-1.059,0.698c-0.464,0-0.882-0.278-1.062-0.706l-19.366-46.161c-0.678-1.582-1.314-2.925-1.907-4.027
		c-0.594-1.102-1.258-1.991-1.992-2.67c-0.735-0.677-1.525-1.186-2.373-1.524c-0.613-0.246-1.316-0.432-2.108-0.559
		c-0.547-0.088-0.943-0.576-0.943-1.131V0.849c0.227,0,0.665-0.028,1.314-0.085c0.65-0.057,1.172-0.085,1.568-0.085
		c1.017,0,2.174,0.113,3.475,0.338c1.298,0.228,2.613,0.707,3.94,1.44c1.328,0.735,2.627,1.811,3.899,3.222
		c1.272,1.412,2.416,3.334,3.433,5.764L168.885,43.12z"/>
	<path d="M266.577,31.612h-4.602c-0.469,0-0.848,0.379-0.848,0.847v24.155c0,0.468-0.379,0.848-0.848,0.848h-5.934
		c-0.469,0-0.848-0.38-0.848-0.848V11.696c0-2.542-0.354-4.59-1.06-6.145c-0.707-1.554-2.331-2.331-4.873-2.331h-0.849
		c-0.467,0-0.848-0.38-0.848-0.848s0.381-0.847,0.848-0.847h21.188c1.809,0,3.928,0.156,6.355,0.466
		c2.43,0.312,4.748,1.004,6.951,2.076c2.203,1.074,4.066,2.614,5.593,4.619c1.526,2.007,2.288,4.703,2.288,8.094
		c0,2.43-0.424,4.492-1.271,6.188c-0.848,1.694-1.937,3.093-3.263,4.194c-1.328,1.103-2.797,1.964-4.407,2.585
		c-1.211,0.468-2.382,0.855-3.512,1.162c-0.55,0.149-0.813,0.771-0.521,1.257l8.312,13.854c1.073,1.81,2.077,3.306,3.01,4.492
		c0.933,1.186,1.851,2.161,2.753,2.924c0.904,0.763,1.809,1.313,2.713,1.651c0.693,0.261,1.438,0.455,2.23,0.581
		c0.419,0.067,0.736,0.414,0.736,0.839v0.378c0,0.366-0.229,0.691-0.576,0.807c-0.4,0.133-0.9,0.254-1.5,0.362
		c-0.935,0.17-1.938,0.255-3.01,0.255c-1.471,0-2.84-0.199-4.109-0.594c-1.271-0.395-2.502-1.072-3.688-2.033
		c-1.188-0.96-2.388-2.231-3.603-3.814c-1.216-1.581-2.501-3.531-3.856-5.848l-8.229-13.99
		C267.154,31.771,266.877,31.612,266.577,31.612 M267.484,28.646c1.188,0,2.529-0.226,4.026-0.678
		c1.496-0.452,2.924-1.145,4.279-2.077c1.355-0.932,2.5-2.146,3.433-3.645c0.933-1.496,1.397-3.317,1.397-5.466
		c0-2.204-0.466-4.096-1.397-5.678c-0.933-1.581-2.076-2.854-3.433-3.814c-1.355-0.961-2.783-1.666-4.279-2.119
		c-1.497-0.451-2.84-0.678-4.026-0.678c-1.073,0-2.188,0.085-3.348,0.254c-0.878,0.129-1.666,0.274-2.365,0.436
		c-0.38,0.087-0.644,0.433-0.644,0.821v21.133c0,0.39,0.264,0.734,0.643,0.822c0.7,0.161,1.488,0.306,2.366,0.435
		C265.295,28.561,266.411,28.646,267.484,28.646"/>
	<path d="M343.336,2.385v1.671c0,0.475-0.385,0.858-0.859,0.858h-17.35c-0.477,0-0.861,0.385-0.861,0.86v50.827
		c0,0.474-0.383,0.858-0.857,0.858H317.5c-0.475,0-0.859-0.385-0.859-0.858V5.775c0-0.476-0.385-0.86-0.859-0.86h-6.77
		c-3.391,0-6.004,0.778-7.838,2.331c-1.684,1.424-2.596,3.615-2.734,6.576c-0.023,0.465-0.393,0.84-0.855,0.84
		c-0.477,0-0.86-0.385-0.86-0.859V8.305c0-0.848,0.099-1.682,0.298-2.499c0.197-0.819,0.564-1.539,1.102-2.162
		c0.535-0.621,1.271-1.13,2.203-1.526c0.934-0.395,2.133-0.593,3.602-0.593h38.551C342.952,1.525,343.336,1.91,343.336,2.385"/>
	<path d="M235.896,5.34H213.81c-0.468,0-0.847,0.38-0.847,0.848v20.341c0,0.468,0.379,0.848,0.847,0.848h16.608
		c0.468,0,0.847,0.379,0.847,0.848v1.694c0,0.469-0.379,0.849-0.847,0.849H213.81c-0.468,0-0.847,0.379-0.847,0.847v22.036
		c0,0.467,0.379,0.847,0.847,0.847h13.983c3.842,0,6.879-0.706,9.11-2.119c2.078-1.314,3.752-3.487,5.022-6.519
		c0.162-0.387,0.576-0.609,0.984-0.507l0.067,0.017c0.489,0.122,0.767,0.641,0.59,1.115l-2.639,7.165
		c-0.453,1.301-1.202,2.331-2.246,3.094c-1.046,0.762-2.416,1.145-4.108,1.145H206.18c-0.469,0-0.848-0.38-0.848-0.848V12.12
		c0-2.542-0.354-4.59-1.06-6.145c-0.707-1.554-2.331-2.331-4.873-2.331h-0.849c-0.469,0-0.848-0.379-0.848-0.848
		c0-0.468,0.379-0.847,0.848-0.847h37.342c0.468,0,0.848,0.379,0.848,0.847v1.696C236.745,4.96,236.364,5.34,235.896,5.34"/>
	<path d="M18.404,133.441c-0.893,0-1.593,0.271-2.1,0.812c-0.506,0.542-0.76,1.355-0.76,2.438c0,0.46,0.056,0.876,0.169,1.248
		c0.112,0.373,0.271,0.689,0.474,0.954c0.204,0.266,0.443,0.47,0.716,0.61c0.272,0.146,0.569,0.216,0.89,0.216
		c0.234,0,0.455-0.037,0.663-0.109c0.208-0.074,0.39-0.188,0.546-0.339c0.156-0.151,0.279-0.343,0.37-0.571
		c0.092-0.229,0.137-0.496,0.137-0.8v-0.521h-1.69v-1.403h3.328v5.006h-1.456l-0.182-1.027c-0.182,0.321-0.436,0.591-0.761,0.813
		c-0.324,0.223-0.747,0.332-1.267,0.332c-0.537,0-1.029-0.105-1.475-0.317c-0.447-0.213-0.831-0.512-1.151-0.898
		c-0.321-0.385-0.568-0.849-0.741-1.39c-0.173-0.542-0.26-1.143-0.26-1.801c0-0.729,0.102-1.378,0.305-1.95
		c0.204-0.571,0.499-1.055,0.885-1.449c0.385-0.395,0.851-0.697,1.397-0.911c0.546-0.211,1.157-0.316,1.833-0.316
		c0.936,0,1.776,0.193,2.522,0.585l-0.416,1.286c-0.304-0.164-0.626-0.287-0.969-0.369
		C19.069,133.482,18.733,133.441,18.404,133.441"/>
	<polygon points="36.635,132.22 42.329,132.22 42.329,133.649 38.273,133.649 38.273,135.794 42.082,135.794 42.082,137.225 
		38.273,137.225 38.273,139.552 42.407,139.552 42.407,140.981 36.635,140.981 	"/>
	<path d="M62.99,132.22h1.69v8.762h-1.69L60,136.016c-0.182-0.306-0.344-0.604-0.488-0.898c-0.143-0.294-0.266-0.601-0.37-0.922
		h-0.039c0.069,0.364,0.123,0.717,0.162,1.059c0.039,0.345,0.059,0.653,0.059,0.932v4.797h-1.69v-8.762h1.82l2.86,4.966
		c0.182,0.304,0.344,0.602,0.488,0.896c0.143,0.295,0.266,0.604,0.37,0.924h0.039c-0.07-0.362-0.124-0.718-0.162-1.059
		c-0.039-0.343-0.059-0.653-0.059-0.93V132.22z"/>
	<path d="M80.296,132.22h5.694v1.43h-4.056v2.145h3.809v1.432h-3.809v2.327h4.134v1.43h-5.772V132.22z M84.677,130.764l-0.455,0.701
		l-2.665-1.364l0.871-1.248L84.677,130.764z"/>
	<polygon points="106.599,132.22 108.393,132.22 105.325,140.981 103.557,140.981 100.489,132.22 102.283,132.22 103.778,136.899 
		104.428,139.266 104.454,139.266 105.104,136.899 	"/>
	<polygon points="123.205,132.22 128.898,132.22 128.898,133.649 124.843,133.649 124.843,135.794 128.652,135.794 128.652,137.225 
		124.843,137.225 124.843,139.552 128.977,139.552 128.977,140.981 123.205,140.981 	"/>
	<rect x="143.553" y="136.965" width="3.77" height="1.325"/>
	<path d="M168.726,134.571c0,0.227-0.035,0.433-0.104,0.619c-0.069,0.185-0.16,0.352-0.273,0.5
		c-0.112,0.146-0.238,0.274-0.377,0.383c-0.139,0.109-0.277,0.198-0.416,0.268c0.428,0.121,0.791,0.354,1.088,0.694
		c0.298,0.343,0.446,0.805,0.446,1.386c0,0.362-0.063,0.7-0.189,1.015c-0.126,0.311-0.324,0.583-0.593,0.812
		c-0.269,0.23-0.609,0.409-1.022,0.539c-0.412,0.13-0.905,0.196-1.478,0.196h-3.517v-8.762h3.562c0.979,0,1.703,0.214,2.171,0.643
		C168.492,133.291,168.726,133.861,168.726,134.571 M165.866,135.78c0.364,0,0.663-0.088,0.897-0.266
		c0.234-0.178,0.351-0.461,0.351-0.854c0-0.329-0.113-0.587-0.338-0.771c-0.225-0.188-0.533-0.279-0.923-0.279h-1.924v2.17H165.866
		L165.866,135.78z M165.782,139.591c0.522,0,0.931-0.112,1.227-0.338c0.295-0.226,0.443-0.532,0.443-0.925
		c0-0.389-0.15-0.684-0.45-0.884c-0.3-0.199-0.72-0.298-1.259-0.298h-1.814v2.443L165.782,139.591L165.782,139.591z"/>
	<path d="M189.023,139.018h-3.173l-0.662,1.963h-1.77l3.16-8.762h1.715l3.16,8.762h-1.769L189.023,139.018z M186.345,137.614h2.185
		l-0.43-1.313l-0.648-2.237h-0.027l-0.648,2.237L186.345,137.614z"/>
	<path d="M212.674,134.937c0,0.604-0.172,1.122-0.514,1.547c-0.343,0.425-0.781,0.73-1.318,0.923l2.066,3.575h-1.808l-1.886-3.276
		h-1.286v3.276h-1.69v-8.763h3.289c0.503,0,0.949,0.07,1.34,0.215c0.389,0.144,0.719,0.336,0.987,0.578
		c0.269,0.241,0.472,0.529,0.61,0.863S212.674,134.563,212.674,134.937 M210.984,134.937c0-0.381-0.118-0.688-0.356-0.917
		c-0.238-0.229-0.602-0.346-1.086-0.346h-1.611v2.573h1.611c0.451,0,0.804-0.116,1.06-0.35
		C210.856,135.664,210.984,135.344,210.984,134.937"/>
	<path d="M231.542,141.138c-0.676,0-1.275-0.115-1.801-0.347c-0.523-0.229-0.964-0.548-1.318-0.955
		c-0.355-0.405-0.625-0.888-0.807-1.441c-0.183-0.556-0.273-1.153-0.273-1.794c0-0.644,0.092-1.239,0.273-1.794
		c0.182-0.557,0.45-1.036,0.807-1.443c0.354-0.408,0.795-0.726,1.318-0.955c0.524-0.229,1.125-0.345,1.801-0.345
		c0.478,0,0.914,0.048,1.313,0.142c0.397,0.098,0.784,0.244,1.156,0.443l-0.416,1.287c-0.615-0.329-1.257-0.494-1.925-0.494
		c-0.875,0-1.533,0.277-1.976,0.832c-0.442,0.554-0.663,1.33-0.663,2.327s0.223,1.771,0.67,2.327
		c0.445,0.555,1.104,0.832,1.969,0.832c0.261,0,0.57-0.045,0.931-0.132s0.717-0.225,1.071-0.415l0.392,1.301
		c-0.349,0.197-0.735,0.353-1.164,0.461C232.472,141.082,232.019,141.138,231.542,141.138"/>
	<polygon points="249.161,132.22 254.854,132.22 254.854,133.649 250.799,133.649 250.799,135.794 254.608,135.794 254.608,137.225 
		250.799,137.225 250.799,139.552 254.933,139.552 254.933,140.981 249.161,140.981 	"/>
	<polygon points="270.161,132.22 271.849,132.205 271.849,139.525 275.723,139.525 275.723,140.981 270.161,140.981 	"/>
	<path d="M290.028,136.601c0-0.644,0.086-1.239,0.26-1.794c0.174-0.557,0.433-1.036,0.774-1.443c0.342-0.408,0.769-0.726,1.28-0.955
		c0.511-0.229,1.104-0.345,1.781-0.345c0.676,0,1.27,0.115,1.779,0.345c0.512,0.229,0.938,0.547,1.28,0.955
		c0.343,0.407,0.601,0.888,0.774,1.443c0.172,0.555,0.26,1.15,0.26,1.794c0,0.642-0.088,1.237-0.26,1.794
		c-0.174,0.555-0.433,1.036-0.774,1.441c-0.343,0.408-0.769,0.728-1.28,0.955c-0.511,0.23-1.104,0.347-1.779,0.347
		c-0.678,0-1.271-0.115-1.781-0.347c-0.512-0.229-0.938-0.547-1.28-0.955c-0.343-0.405-0.601-0.888-0.774-1.441
		C290.114,137.839,290.028,137.242,290.028,136.601 M291.719,136.601c0,0.997,0.203,1.771,0.609,2.327
		c0.407,0.555,1.006,0.83,1.795,0.83s1.387-0.275,1.795-0.83c0.406-0.557,0.609-1.33,0.609-2.327s-0.203-1.772-0.609-2.327
		c-0.408-0.556-1.006-0.832-1.795-0.832s-1.388,0.276-1.795,0.832C291.922,134.828,291.719,135.604,291.719,136.601"/>
	<path d="M318.749,132.22h1.691v8.762h-1.691l-2.988-4.966c-0.184-0.306-0.346-0.604-0.49-0.898
		c-0.141-0.294-0.264-0.601-0.367-0.922h-0.039c0.068,0.364,0.123,0.717,0.162,1.059c0.037,0.345,0.059,0.653,0.059,0.932v4.797
		h-1.689v-8.762h1.82l2.859,4.966c0.182,0.304,0.344,0.602,0.486,0.896c0.145,0.295,0.268,0.604,0.371,0.924h0.039
		c-0.068-0.362-0.125-0.718-0.164-1.059c-0.039-0.343-0.059-0.653-0.059-0.93V132.22z"/>
	<path d="M340.827,139.018h-3.172l-0.662,1.963h-1.77l3.16-8.762h1.715l3.16,8.762h-1.77L340.827,139.018z M338.149,137.614h2.184
		l-0.428-1.313l-0.65-2.237h-0.025l-0.65,2.237L338.149,137.614z"/>
	<path d="M354.286,117.988H0.5c-0.276,0-0.5-0.225-0.5-0.5c0-0.276,0.224-0.5,0.5-0.5h353.786c0.275,0,0.5,0.224,0.5,0.5
		S354.563,117.988,354.286,117.988"/>
	<path d="M242.282,101.004c-1.25,0-2.293-0.146-3.128-0.436c-0.833-0.29-1.493-0.734-1.979-1.337
		c-0.487-0.604-0.829-1.378-1.024-2.328c-0.198-0.95-0.295-2.073-0.295-3.37V82.791c0-0.608-0.833-0.789-1.084-0.23l-7.604,16.881
		h-0.696l-7.954-17.286c-0.254-0.552-1.081-0.371-1.081,0.237V99.44h-1.39V76.504h2.938c0.222,0,0.423,0.128,0.515,0.329
		l7.67,16.615c0.203,0.441,0.83,0.438,1.029-0.004l7.658-16.94h3.127v17.029c0,2.106,0.268,3.764,0.799,4.967
		c0.533,1.207,1.365,1.812,2.502,1.812v0.692H242.282z"/>
	<path d="M280.913,82.631c-0.166-0.391-0.721-0.391-0.889-0.001c-0.396,0.914-0.738,1.693-1.027,2.339
		c-0.391,0.878-0.709,1.61-0.959,2.202c-0.248,0.594-0.455,1.091-0.621,1.493s-0.332,0.799-0.498,1.19
		c-0.166,0.391-0.344,0.823-0.533,1.297c-0.188,0.473-0.442,1.089-0.764,1.848c-0.32,0.757-0.716,1.699-1.189,2.824
		c-0.445,1.059-0.996,2.374-1.651,3.946c-0.075,0.18-0.252,0.3-0.446,0.3h-0.651c-0.347,0-0.58-0.354-0.444-0.673l9.784-22.84
		c0.076-0.179,0.251-0.293,0.442-0.293c0.195,0,0.371,0.116,0.447,0.296l8.118,19.353c0.284,0.663,0.552,1.228,0.8,1.688
		c0.248,0.462,0.527,0.835,0.834,1.119c0.31,0.283,0.642,0.498,0.996,0.64c0.256,0.103,0.551,0.181,0.883,0.233
		c0.23,0.036,0.396,0.24,0.396,0.475v0.287c-0.098,0-0.279,0.011-0.551,0.035c-0.273,0.022-0.492,0.034-0.658,0.034
		c-0.426,0-0.911-0.048-1.457-0.142c-0.544-0.095-1.096-0.297-1.652-0.604c-0.556-0.31-1.101-0.761-1.634-1.353
		c-0.532-0.592-1.013-1.396-1.438-2.416L280.913,82.631z"/>
	<path d="M130.722,77.662h-9.11c-0.193,0-0.35,0.156-0.35,0.35v8.391c0,0.193,0.157,0.35,0.35,0.35h6.85
		c0.193,0,0.35,0.156,0.35,0.351V87.8c0,0.193-0.157,0.351-0.35,0.351h-6.85c-0.193,0-0.35,0.156-0.35,0.35v9.09
		c0,0.192,0.157,0.35,0.35,0.35h5.768c1.585,0,2.838-0.291,3.758-0.874c0.857-0.542,1.548-1.438,2.072-2.688
		c0.067-0.16,0.238-0.251,0.406-0.209l0.028,0.007c0.202,0.051,0.315,0.266,0.244,0.461l-1.089,2.954
		c-0.187,0.537-0.496,0.963-0.927,1.275c-0.431,0.315-0.996,0.473-1.695,0.473h-11.712c-0.193,0-0.349-0.155-0.349-0.35V80.459
		c0-1.05-0.146-1.895-0.437-2.535s-0.961-0.961-2.01-0.961h-0.35c-0.193,0-0.349-0.156-0.349-0.35s0.156-0.349,0.349-0.349h15.403
		c0.193,0,0.349,0.155,0.349,0.349v0.7C131.071,77.506,130.915,77.662,130.722,77.662"/>
	<path d="M329.473,97.999h11.582c0.191,0,0.346,0.154,0.346,0.347v0.69c0,0.19-0.154,0.346-0.346,0.346H326.36
		c-0.191,0-0.346-0.154-0.346-0.346V80.712c0-1.037-0.145-1.872-0.432-2.507c-0.289-0.633-0.951-0.95-1.988-0.95h-0.346
		c-0.191,0-0.346-0.154-0.346-0.346c0-0.19,0.154-0.346,0.346-0.346h2.766c0.6,0,1.102,0.052,1.504,0.156
		c0.402,0.103,0.727,0.311,0.969,0.621c0.242,0.312,0.408,0.738,0.502,1.28c0.092,0.542,0.137,1.239,0.137,2.091v16.94
		C329.125,97.844,329.282,97.999,329.473,97.999"/>
	<path d="M172.703,88.777h-1.876c-0.191,0-0.346,0.155-0.346,0.347v9.854c0,0.189-0.155,0.345-0.346,0.345h-2.42
		c-0.191,0-0.346-0.154-0.346-0.345V80.652c0-1.037-0.144-1.872-0.432-2.506s-0.951-0.951-1.988-0.951h-0.346
		c-0.191,0-0.345-0.155-0.345-0.346c0-0.191,0.154-0.346,0.345-0.346h8.644c0.737,0,1.602,0.063,2.593,0.19
		c0.991,0.127,1.936,0.409,2.834,0.847c0.898,0.438,1.66,1.066,2.281,1.884c0.623,0.819,0.935,1.92,0.935,3.303
		c0,0.991-0.173,1.832-0.519,2.523c-0.347,0.69-0.791,1.263-1.332,1.711c-0.541,0.449-1.141,0.802-1.797,1.055
		c-0.495,0.19-0.973,0.349-1.434,0.475c-0.224,0.062-0.331,0.314-0.212,0.513l3.392,5.651c0.438,0.738,0.846,1.349,1.227,1.832
		c0.382,0.484,0.756,0.883,1.125,1.193c0.367,0.311,0.736,0.535,1.104,0.674c0.283,0.105,0.587,0.186,0.91,0.236
		c0.171,0.027,0.3,0.17,0.3,0.343v0.153c0,0.149-0.092,0.282-0.232,0.329c-0.164,0.055-0.368,0.104-0.613,0.147
		c-0.38,0.068-0.789,0.104-1.229,0.104c-0.6,0-1.156-0.081-1.677-0.241c-0.518-0.161-1.021-0.438-1.504-0.83
		c-0.483-0.393-0.974-0.91-1.469-1.557c-0.496-0.646-1.02-1.439-1.573-2.386L173,88.947
		C172.938,88.844,172.825,88.777,172.703,88.777 M173.073,87.567c0.484,0,1.032-0.092,1.643-0.276
		c0.61-0.185,1.192-0.467,1.745-0.848c0.554-0.38,1.02-0.875,1.4-1.485c0.382-0.61,0.571-1.354,0.571-2.229
		c0-0.898-0.189-1.671-0.571-2.315c-0.38-0.646-0.846-1.164-1.4-1.557c-0.553-0.393-1.135-0.68-1.745-0.865
		c-0.611-0.184-1.159-0.276-1.643-0.276c-0.438,0-0.893,0.034-1.366,0.104c-0.358,0.053-0.679,0.112-0.965,0.177
		c-0.154,0.036-0.262,0.177-0.262,0.336v8.622c0,0.158,0.107,0.3,0.262,0.335c0.285,0.065,0.607,0.125,0.965,0.177
		C172.181,87.532,172.635,87.567,173.073,87.567"/>
	<path d="M32.402,76.914v0.683c0,0.192-0.157,0.35-0.351,0.35h-7.078c-0.193,0-0.35,0.157-0.35,0.351V99.03
		c0,0.194-0.157,0.352-0.351,0.352h-2.41c-0.194,0-0.351-0.156-0.351-0.352V78.297c0-0.193-0.157-0.351-0.35-0.351H18.4
		c-1.383,0-2.449,0.317-3.198,0.951c-0.687,0.581-1.058,1.476-1.116,2.684c-0.009,0.188-0.159,0.342-0.349,0.342
		c-0.194,0-0.351-0.156-0.351-0.351V79.33c0-0.347,0.04-0.687,0.122-1.021c0.08-0.334,0.23-0.627,0.449-0.881
		c0.219-0.255,0.518-0.462,0.899-0.623c0.38-0.161,0.87-0.242,1.469-0.242h15.726C32.245,76.563,32.402,76.72,32.402,76.914"/>
	<path d="M78.837,85.93v-9.367h3.127v18.764c0,1.045,0.144,1.883,0.434,2.521c0.29,0.64,0.955,0.958,1.999,0.958h0.695v0.693h-3.128
		c-0.603,0-1.106-0.052-1.511-0.155c-0.407-0.104-0.731-0.313-0.974-0.628c-0.243-0.313-0.412-0.732-0.504-1.269
		c-0.094-0.532-0.138-1.237-0.138-2.12v-5.892V85.93z"/>
	<path d="M69.467,86.987c-0.414,0-0.763-0.244-0.937-0.592v2.573c0.174-0.348,0.523-0.592,0.937-0.592h4.41v-1.391L69.467,86.987
		L69.467,86.987z"/>
	<path d="M62.156,77.257v-0.519v-0.175V77.257h0.694c1.045,0,1.71,0.318,2,0.955c0.29,0.638,0.433,1.479,0.433,2.521v18.767h3.128
		V89.436c0-0.17,0.049-0.324,0.12-0.466v-2.573c-0.071-0.143-0.12-0.297-0.12-0.466v-5.198c0-0.857-0.047-1.556-0.138-2.103
		c-0.094-0.545-0.262-0.974-0.504-1.286c-0.243-0.312-0.569-0.52-0.974-0.624c-0.405-0.104-0.909-0.156-1.512-0.156H62.26h-0.104
		V77.257z"/>
</g>
</svg>
